<?xml version="1.0" encoding="UTF-8"?>
<svg id="Layer_1" xmlns="http://www.w3.org/2000/svg" version="1.1" viewBox="0 0 500 500">
  <!-- Generator: Adobe Illustrator 30.1.0, SVG Export Plug-In . SVG Version: 2.1.1 Build 136)  -->
  <defs>
    <style>
      .st0 {
        fill: #333;
      }
    </style>
  </defs>
  <path class="st0" d="M481.6,251.95l-4.15-1.91-49.16-26.54,53.07-115.34.29-.15-.17-.09.12-.27-4.15-1.91-72.88-39.35s.02-.05.04-.07l-4.06-2.1-3.98-2.15.07.12-.14-.07c-4.8,9.27-9.59,18.53-14.39,27.8h-84.52l-47.13,55.99-47.13-55.99h-85.23l-14.4-27.48.22-.38-4.32,2.33-4.06,2.13.03.05L23.86,105.29l-5.06,2.37.14.29-.11.06.18.1,53.7,114.82-50.6,27.61-4.14,1.94,27.84,59.53,3.27,6.99,3.27,6.99,6.77,3.7,6.77,3.7,36.93,20.17,8.36,4.56,8.35,4.56h108.09l.28-.33,1.64-1.97,1.89-2.26,3.81-4.56,12.72-15.22,2.22-2.66.06.07,2.28,2.73,12.6,15.08,3.81,4.56,3.4,4.08.41.49h108.07l8.35-4.56,8.36-4.56,36.43-19.9,6.71-3.67,6.71-3.67,3.2-6.95,3.2-6.95,27.59-59.95.29-.16-.17-.09.12-.26ZM191.55,127.35l37.27,44.28-52.37,62.21h-35.63l-37.53-80.23-1.79-3.84-9.38-16.23-3.58-6.2h103.01ZM98.29,71.8l9.5,18.13h-19.98l10.48-18.13ZM32.49,115.38l64.06,34.59,39.23,83.87h-17.18l-15.12-26.72.43-.75-.65.35h0s-.53.29-.53.29l-21.85,11.8-48.38-103.43ZM102.16,209.42l13.82,24.43h-27.94l14.12-24.43ZM121.86,353.55l-62.5-34.15-28.29-60.49,65.77,35.51,27.66,59.13h-2.63ZM129.53,353.55l-25.95-55.49.34.18-1.34-2.32-11.54-24.67h95.68l34.96,82.29h-92.15ZM247.96,318.76v5.33l-.75.9-2.97,3.56-18.71,22.4-35.01-82.4,57.44-68.24v118.46ZM250.24,197.58l.22-.26.22.26h-.43ZM420.24,219.16l-21.83-11.79h0s-1.99-1.12-1.99-1.12l-15.61,27.59h-16.37l39.14-83.68,64.41-34.78-47.75,103.78ZM397.78,208.48l14.66,25.36h-29.01l14.35-25.36ZM401.97,71.42l10.7,18.51h-20.28c3.19-6.17,6.38-12.34,9.58-18.51ZM309.36,127.35h102.58l-3.19,5.51-11.14,19.28-.78,1.66-37.44,80.04h-34.93l-52.37-62.21,37.27-44.28ZM276.35,352.75l-20.22-24.21-2.97-3.56-.63-.76v-124.44l59.02,70.12-35.2,82.85ZM370.95,353.55h-89.98l34.96-82.29h93.51l-11.54,24.68-1.33,2.31.34-.18-25.95,55.49ZM440.35,319.75l-61.87,33.8h-2.49l27.66-59.13,64.34-34.74-27.64,60.07Z"/>
</svg>